<svg width="19" height="20" viewBox="0 0 19 20" fill="none" xmlns="http://www.w3.org/2000/svg">
<path fill-rule="evenodd" clip-rule="evenodd" d="M4.0783 4.5783C4.4493 4.2073 5.0508 4.2073 5.4218 4.5783L9.50005 8.65655L13.5783 4.5783C13.9493 4.2073 14.5508 4.2073 14.9218 4.5783C15.2928 4.9493 15.2928 5.5508 14.9218 5.9218L10.8436 10L14.9218 14.0783C15.2928 14.4493 15.2928 15.0508 14.9218 15.4218C14.5508 15.7928 13.9493 15.7928 13.5783 15.4218L9.50005 11.3436L5.4218 15.4218C5.0508 15.7928 4.4493 15.7928 4.0783 15.4218C3.7073 15.0508 3.7073 14.4493 4.0783 14.0783L8.15655 10L4.0783 5.9218C3.7073 5.5508 3.7073 4.9493 4.0783 4.5783Z" fill="#137D60"/>
</svg>
