<svg width="16" height="16" viewBox="0 0 16 16" fill="none" xmlns="http://www.w3.org/2000/svg">
<path fill-rule="evenodd" clip-rule="evenodd" d="M4.80001 1.59998C3.91636 1.59998 3.20001 2.31632 3.20001 3.19998V12.8C3.20001 13.6836 3.91636 14.4 4.80001 14.4H11.2C12.0837 14.4 12.8 13.6836 12.8 12.8V5.93135C12.8 5.507 12.6314 5.10003 12.3314 4.79998L9.60001 2.0686C9.29995 1.76855 8.89299 1.59998 8.46864 1.59998H4.80001ZM8.80001 6.39998C8.80001 5.95815 8.44184 5.59998 8.00001 5.59998C7.55818 5.59998 7.20001 5.95815 7.20001 6.39998V9.2686L6.1657 8.23429C5.85328 7.92187 5.34675 7.92187 5.03433 8.23429C4.72191 8.54671 4.72191 9.05324 5.03433 9.36566L7.43433 11.7657C7.74675 12.0781 8.25328 12.0781 8.5657 11.7657L10.9657 9.36566C11.2781 9.05324 11.2781 8.54671 10.9657 8.23429C10.6533 7.92187 10.1467 7.92187 9.83433 8.23429L8.80001 9.2686V6.39998Z" fill="#137D60"/>
</svg>
