<svg width="40" height="40" viewBox="0 0 40 40" fill="none" xmlns="http://www.w3.org/2000/svg">
<path fill-rule="evenodd" clip-rule="evenodd" d="M20 4C11.1634 4 4 11.1634 4 20C4 28.8366 11.1634 36 20 36C28.8366 36 36 28.8366 36 20C36 11.1634 28.8366 4 20 4ZM0 20C0 8.9543 8.9543 0 20 0C31.0457 0 40 8.9543 40 20C40 31.0457 31.0457 40 20 40C8.9543 40 0 31.0457 0 20ZM20 10C21.1046 10 22 10.8954 22 12V20C22 21.1046 21.1046 22 20 22C18.8954 22 18 21.1046 18 20V12C18 10.8954 18.8954 10 20 10ZM18 28C18 26.8954 18.8954 26 20 26H20.02C21.1246 26 22.02 26.8954 22.02 28C22.02 29.1046 21.1246 30 20.02 30H20C18.8954 30 18 29.1046 18 28Z" fill="#555555"/>
</svg>
