<svg width="16" height="16" viewBox="0 0 16 16" fill="none" xmlns="http://www.w3.org/2000/svg">
<path fill-rule="evenodd" clip-rule="evenodd" d="M4.26721 2.26714C4.48786 2.04649 4.84559 2.04649 5.06624 2.26714L7.73291 4.93381C7.95355 5.15445 7.95355 5.51219 7.73291 5.73284C7.51226 5.95348 7.15452 5.95348 6.93388 5.73284L5.23173 4.03068V10.6667C5.23173 10.9787 4.97877 11.2317 4.66673 11.2317C4.35468 11.2317 4.10173 10.9787 4.10173 10.6667V4.03068L2.39957 5.73284C2.17893 5.95348 1.82119 5.95348 1.60054 5.73284C1.3799 5.51219 1.3799 5.15445 1.60054 4.93381L4.26721 2.26714ZM10.7684 5.33332C10.7684 5.02128 11.0214 4.76832 11.3334 4.76832C11.6454 4.76832 11.8984 5.02128 11.8984 5.33332V11.9693L13.6005 10.2671C13.8212 10.0465 14.1789 10.0465 14.3996 10.2671C14.6202 10.4878 14.6202 10.8455 14.3996 11.0662L11.7329 13.7328C11.5123 13.9535 11.1545 13.9535 10.9339 13.7328L8.26721 11.0662C8.04656 10.8455 8.04656 10.4878 8.26721 10.2671C8.48786 10.0465 8.84559 10.0465 9.06624 10.2671L10.7684 11.9693V5.33332Z" fill="#767676"/>
</svg>
