<svg width="16" height="16" viewBox="0 0 16 16" fill="none" xmlns="http://www.w3.org/2000/svg">
<path fill-rule="evenodd" clip-rule="evenodd" d="M1.43506 2.66665C1.43506 2.35461 1.68802 2.10165 2.00006 2.10165H10.6667C10.9788 2.10165 11.2317 2.35461 11.2317 2.66665C11.2317 2.97869 10.9788 3.23165 10.6667 3.23165H2.00006C1.68802 3.23165 1.43506 2.97869 1.43506 2.66665ZM1.43506 5.33332C1.43506 5.02128 1.68802 4.76832 2.00006 4.76832H8.00006C8.3121 4.76832 8.56506 5.02128 8.56506 5.33332C8.56506 5.64536 8.3121 5.89832 8.00006 5.89832H2.00006C1.68802 5.89832 1.43506 5.64536 1.43506 5.33332ZM11.3334 4.76832C11.6454 4.76832 11.8984 5.02128 11.8984 5.33332V11.9693L13.6005 10.2671C13.8212 10.0465 14.1789 10.0465 14.3996 10.2671C14.6202 10.4878 14.6202 10.8455 14.3996 11.0662L11.7329 13.7328C11.5123 13.9535 11.1545 13.9535 10.9339 13.7328L8.26721 11.0662C8.04656 10.8455 8.04656 10.4878 8.26721 10.2671C8.48786 10.0465 8.84559 10.0465 9.06624 10.2671L10.7684 11.9693V5.33332C10.7684 5.02128 11.0214 4.76832 11.3334 4.76832ZM1.43506 7.99999C1.43506 7.68795 1.68802 7.43499 2.00006 7.43499H8.00006C8.3121 7.43499 8.56506 7.68795 8.56506 7.99999C8.56506 8.31203 8.3121 8.56499 8.00006 8.56499H2.00006C1.68802 8.56499 1.43506 8.31203 1.43506 7.99999Z" fill="#137D60"/>
</svg>
