<svg width="24" height="24" viewBox="0 0 24 24" fill="none" xmlns="http://www.w3.org/2000/svg">
<path fill-rule="evenodd" clip-rule="evenodd" d="M6.29289 3.79289C6.68342 3.40237 7.31658 3.40237 7.70711 3.79289L11.7071 7.79289C12.0976 8.18342 12.0976 8.81658 11.7071 9.20711C11.3166 9.59763 10.6834 9.59763 10.2929 9.20711L8 6.91421V16.5C8 17.0523 7.55228 17.5 7 17.5C6.44772 17.5 6 17.0523 6 16.5V6.91421L3.70711 9.20711C3.31658 9.59763 2.68342 9.59763 2.29289 9.20711C1.90237 8.81658 1.90237 8.18342 2.29289 7.79289L6.29289 3.79289ZM16 18.0858V8.5C16 7.94772 16.4477 7.5 17 7.5C17.5523 7.5 18 7.94772 18 8.5V18.0858L20.2929 15.7929C20.6834 15.4024 21.3166 15.4024 21.7071 15.7929C22.0976 16.1834 22.0976 16.8166 21.7071 17.2071L17.7071 21.2071C17.3166 21.5976 16.6834 21.5976 16.2929 21.2071L12.2929 17.2071C11.9024 16.8166 11.9024 16.1834 12.2929 15.7929C12.6834 15.4024 13.3166 15.4024 13.7071 15.7929L16 18.0858Z" fill="#137D60"/>
</svg>
